<?xml version="1.0" encoding="utf-8"?>
<!-- Generator: Adobe Illustrator 24.3.0, SVG Export Plug-In . SVG Version: 6.00 Build 0)  -->
<svg version="1.1" id="Layer_1" xmlns="http://www.w3.org/2000/svg" xmlns:xlink="http://www.w3.org/1999/xlink" x="0px" y="0px"
	 viewBox="0 0 512 512" style="enable-background:new 0 0 512 512;" xml:space="preserve">
<style type="text/css">
	.st0{fill:#634B1E;}
	.st1{fill:#D9A740;}
	.st2{fill:#886A2A;}
	.st3{fill:#FAD791;}
</style>
<g id="XMLID_1_">
	<polyline id="XMLID_3_" class="st0" points="468.09,225.98 365.13,230.33 298.36,225.98 408.76,215.46 468.09,225.98 	"/>
	<polyline id="XMLID_4_" class="st1" points="408.48,220.09 468.09,225.98 468.09,106.05 408.48,76.31 403.99,81.22 403.99,214.9 
		408.48,220.09 	"/>
	<polyline id="XMLID_5_" class="st2" points="298.36,105.91 408.48,76.17 408.48,220.09 298.36,225.98 298.36,105.91 	"/>
	<polyline id="XMLID_6_" class="st0" points="43.91,225.98 146.87,230.33 213.64,225.98 103.52,214.2 43.91,225.98 	"/>
	<polyline id="XMLID_7_" class="st2" points="103.52,220.09 43.91,225.84 43.91,105.49 103.52,75.75 106.19,80.94 106.19,215.6 
		103.52,220.09 	"/>
	<polyline id="XMLID_8_" class="st1" points="213.64,105.91 103.52,76.17 103.52,220.09 213.64,225.98 213.64,105.91 	"/>
	<polyline id="XMLID_9_" class="st3" points="468.09,287.98 365.13,283.77 298.36,287.98 408.34,299.2 468.09,287.98 	"/>
	<polyline id="XMLID_10_" class="st1" points="408.48,294.01 468.09,287.98 468.09,408.06 408.48,437.8 405.39,430.92 
		405.39,300.05 408.48,294.01 	"/>
	<polyline id="XMLID_11_" class="st2" points="298.36,408.06 408.48,437.94 408.48,294.01 298.36,287.98 298.36,408.06 	"/>
	<polyline id="XMLID_12_" class="st3" points="43.91,287.98 146.87,283.77 213.64,287.98 102.82,300.05 43.91,287.98 	"/>
	<polyline id="XMLID_13_" class="st2" points="103.52,294.01 43.91,287.98 43.91,408.06 103.52,437.8 107.03,432.46 107.03,300.05 
		103.52,294.01 	"/>
	<polyline id="XMLID_14_" class="st1" points="213.64,408.06 103.52,437.94 103.52,294.01 213.64,287.98 213.64,408.06 	"/>
	<polyline id="XMLID_15_" class="st0" points="202.28,175.62 256.84,166.08 365.83,181.51 375.23,186.84 322.35,192.74 
		202.28,175.62 	"/>
	<polyline id="XMLID_16_" class="st0" points="309.72,175.62 255.16,166.08 141.4,183.62 136.77,186.84 189.65,192.74 
		309.72,175.62 	"/>
	<polyline id="XMLID_17_" class="st3" points="202.28,338.48 256.84,348.02 365.69,332.87 375.23,327.12 322.35,321.37 
		202.28,338.48 	"/>
	<polyline id="XMLID_18_" class="st3" points="309.72,338.48 255.16,348.02 140.55,331.75 136.77,327.12 189.65,321.37 
		309.72,338.48 	"/>
	<polyline id="XMLID_19_" class="st1" points="375.23,186.84 375.23,127.65 319.4,109.27 319.4,31.7 256,0 256,0 253.33,4.21 
		252.91,505.55 256,512 319.4,480.3 319.4,404.69 375.23,386.45 375.23,327.12 319.4,336.94 319.4,177.03 375.23,186.84 	"/>
	<polyline id="XMLID_20_" class="st2" points="192.6,31.7 192.6,109.27 136.77,127.65 136.77,186.84 192.6,177.03 192.6,336.94 
		136.77,327.12 136.77,386.45 192.6,404.69 192.6,480.3 256,512 256,0 192.6,31.7 	"/>
</g>
</svg>
